<?xml version="1.0" encoding="UTF-8"?>
<!DOCTYPE svg PUBLIC "-//W3C//DTD SVG 1.1//EN" "http://www.w3.org/Graphics/SVG/1.1/DTD/svg11.dtd">
<!-- Creator: CorelDRAW X5 -->
<svg xmlns="http://www.w3.org/2000/svg" xml:space="preserve" width="235.407mm" height="271.074mm" style="shape-rendering:geometricPrecision; text-rendering:geometricPrecision; image-rendering:optimizeQuality; fill-rule:evenodd; clip-rule:evenodd"
viewBox="0 0 1982 2282"
 xmlns:xlink="http://www.w3.org/1999/xlink">
 <defs>
  <style type="text/css">
   <![CDATA[
    .str0 {stroke:red;stroke-width:21.0472}
    .fil0 {fill:none}
   ]]>
  </style>
 </defs>
 <g id="Layer_x0020_1">
  <metadata id="CorelCorpID_0Corel-Layer"/>
  <path class="fil0 str0" d="M1380 844l0 515c0,24 19,38 39,25 6,-4 129,-124 149,-143l75 -71c22,-20 171,-162 186,-179l130 -125c9,-8 12,-12 12,-28l0 -513c0,-25 -20,-39 -41,-25 -7,5 -195,187 -224,214 -60,56 -125,122 -187,178l-112 107c-11,10 -29,23 -29,44z"/>
  <path class="fil0 str0" d="M842 924c54,2 116,14 163,29 22,7 17,13 57,-28l344 -329c27,-29 26,-16 26,-68l0 -484c0,-38 -27,-42 -48,-22 -113,105 -230,223 -344,329 -15,14 -192,184 -195,189 -7,12 -4,242 -4,287 0,27 -3,72 1,97z"/>
  <path class="fil0 str0" d="M699 1868c39,-7 70,23 76,53 8,40 -20,73 -52,79 -89,17 -115,-116 -24,-132zm858 -563c-11,5 -93,90 -117,109 -15,12 -37,19 -60,11 -47,-16 -44,-53 -44,-109 0,-51 0,-102 0,-153 -2,-9 -102,-57 -110,-60 -131,-64 -214,-127 -379,-139 -169,-13 -273,38 -404,107 -58,30 -307,155 -339,177 -30,20 -59,53 -77,96 -21,51 -16,99 -16,158 0,53 -6,45 16,70 36,42 41,69 -1,115 -21,23 -16,10 -16,73 0,58 -7,109 19,154 24,41 52,51 97,76 92,51 386,215 448,240 136,54 295,58 438,6 46,-17 78,-35 117,-56 112,-59 221,-121 333,-182 43,-23 77,-37 103,-70 33,-43 28,-81 28,-144l0 -345c0,-41 -11,-109 -38,-134z"/>
 </g>
</svg>
